<svg width="373" height="22" viewBox="0 0 373 22" fill="none" xmlns="http://www.w3.org/2000/svg">
<path fill-rule="evenodd" clip-rule="evenodd" d="M158.067 2.04225C140.582 2.74212 123.302 3.60266 106.452 4.54346C82.5981 5.87435 58.7537 7.25114 35.053 9.43103C27.5925 10.1194 20.0163 10.5554 12.6025 11.4159C7.94855 11.9551 1.77755 12.7237 0.967683 12.8843C0.54409 12.9761 0.35929 13.1139 0.299577 13.1598C-0.120285 13.4811 -0.0436756 13.7907 0.193313 14.0316C0.288482 14.1349 0.529135 14.3874 1.19718 14.4218C45.8742 16.7738 91.5589 12.1846 136.29 11.7027C213.862 10.8766 293.785 14.158 370.741 21.3172C371.412 21.3746 372.066 21.0877 372.159 20.6631C372.271 20.2501 371.786 19.8485 371.114 19.7912C294.027 12.6205 213.974 9.32765 136.253 10.1652C94.5651 10.6126 52.0545 14.6398 10.3091 13.263C11.2683 13.1483 12.2088 13.0335 13.0672 12.9303C20.4511 12.0698 27.9956 11.6453 35.4262 10.9569C59.0765 8.77701 82.8725 7.40024 106.694 6.08082C136.253 4.42869 167.098 3.00601 198.187 2.34057C209.309 2.44383 220.393 2.54713 231.477 2.67333C255.456 2.94869 279.547 3.75181 303.47 4.83029C310.673 5.16301 317.875 5.50718 325.078 5.80548C327.467 5.90874 333.625 6.20699 334.483 6.18404C335.547 6.1611 335.752 5.61044 335.771 5.51865C335.827 5.31213 335.789 5.02529 335.267 4.78435C335.211 4.74993 334.875 4.63513 334.129 4.56629C290.631 0.504796 244.185 -0.172013 198.224 0.803204C149.744 0.378698 101.078 0.195043 52.7208 0C52.0285 0 51.4631 0.344245 51.4575 0.768751C51.4537 1.19326 52.0116 1.53751 52.7039 1.54899C87.7185 1.68666 122.91 1.82426 158.067 2.04225Z" fill="#058075"/>
</svg>
